<svg width="25" height="12" viewBox="0 0 25 12" fill="none" xmlns="http://www.w3.org/2000/svg">
<path opacity="0.35" fill-rule="evenodd" clip-rule="evenodd" d="M3.75201 0.833008C2.74374 0.833008 2.34504 0.910001 1.9335 1.13009C1.58607 1.3159 1.31639 1.58558 1.13058 1.93301C0.910489 2.34455 0.833496 2.74325 0.833496 3.75152V8.24783C0.833496 9.2561 0.910489 9.6548 1.13058 10.0663C1.31639 10.4138 1.58607 10.6834 1.9335 10.8693C2.34504 11.0893 2.74374 11.1663 3.75201 11.1663H18.915C19.9233 11.1663 20.322 11.0893 20.7335 10.8693C21.0809 10.6834 21.3506 10.4138 21.5364 10.0663C21.7565 9.6548 21.8335 9.2561 21.8335 8.24783V3.75152C21.8335 2.74325 21.7565 2.34455 21.5364 1.93301C21.3506 1.58558 21.0809 1.3159 20.7335 1.13009C20.322 0.910001 19.9233 0.833008 18.915 0.833008H3.75201Z" stroke="white"/>
<path opacity="0.4" d="M23.3335 4V8C24.1382 7.66122 24.6615 6.87313 24.6615 6C24.6615 5.12687 24.1382 4.33878 23.3335 4Z" fill="black"/>
<path d="M4.04275 2.33301H18.6242C19.2186 2.33301 19.4341 2.39489 19.6514 2.5111C19.8687 2.6273 20.0392 2.79783 20.1554 3.01511C20.2716 3.23239 20.3335 3.44792 20.3335 4.04226V7.95708C20.3335 8.55143 20.2716 8.76695 20.1554 8.98424C20.0392 9.20152 19.8687 9.37205 19.6514 9.48825C19.4341 9.60446 19.2186 9.66634 18.6242 9.66634H4.04275C3.44841 9.66634 3.23288 9.60446 3.0156 9.48825C2.79831 9.37205 2.62779 9.20152 2.51158 8.98424C2.39538 8.76695 2.3335 8.55143 2.3335 7.95708V4.04226C2.3335 3.44792 2.39538 3.23239 2.51158 3.01511C2.62779 2.79783 2.79831 2.6273 3.0156 2.5111C3.23288 2.39489 3.44841 2.33301 4.04275 2.33301Z" fill="black"/>
</svg>
