<svg width="17" height="12" viewBox="0 0 17 12" fill="none" xmlns="http://www.w3.org/2000/svg">
<path d="M1 7.33366H2C2.55228 7.33366 3 7.78137 3 8.33366V10.3337C3 10.8859 2.55228 11.3337 2 11.3337H1C0.447715 11.3337 0 10.8859 0 10.3337V8.33366C0 7.78137 0.447715 7.33366 1 7.33366ZM5.66666 5.33366H6.66666C7.21894 5.33366 7.66666 5.78137 7.66666 6.33366V10.3337C7.66666 10.8859 7.21894 11.3337 6.66666 11.3337H5.66666C5.11437 11.3337 4.66666 10.8859 4.66666 10.3337V6.33366C4.66666 5.78137 5.11437 5.33366 5.66666 5.33366ZM10.3333 3.00032H11.3333C11.8856 3.00032 12.3333 3.44804 12.3333 4.00032V10.3337C12.3333 10.8859 11.8856 11.3337 11.3333 11.3337H10.3333C9.78106 11.3337 9.33334 10.8859 9.33334 10.3337V4.00032C9.33334 3.44804 9.78106 3.00032 10.3333 3.00032ZM15 0.666992H16C16.5523 0.666992 17 1.11471 17 1.66699V10.3337C17 10.8859 16.5523 11.3337 16 11.3337H15C14.4477 11.3337 14 10.8859 14 10.3337V1.66699C14 1.11471 14.4477 0.666992 15 0.666992Z" fill="black"/>
</svg>
