<svg width="16" height="12" viewBox="0 0 16 12" fill="none" xmlns="http://www.w3.org/2000/svg">
<path d="M7.66709 2.61553C9.89182 2.61563 12.0315 3.46974 13.6438 5.00133C13.7653 5.11958 13.9593 5.11808 14.0789 4.99799L15.2395 3.82766C15.3001 3.76675 15.3338 3.68424 15.3333 3.59839C15.3328 3.51254 15.2981 3.43043 15.2368 3.37023C11.0049 -0.682003 4.32857 -0.682003 0.0966562 3.37023C0.0353532 3.43038 0.000571988 3.51247 6.98771e-06 3.59832C-0.000558012 3.68417 0.0331604 3.7667 0.0936654 3.82766L1.25458 4.99799C1.37409 5.11827 1.56833 5.11976 1.68967 5.00133C3.30223 3.46964 5.44214 2.61553 7.66709 2.61553ZM7.66709 6.42311C8.88944 6.42304 10.0682 6.87699 10.9742 7.69677C11.0968 7.81311 11.2898 7.81059 11.4093 7.69108L12.5685 6.52075C12.6296 6.45937 12.6635 6.37609 12.6626 6.28955C12.6617 6.20302 12.6262 6.12045 12.5639 6.06031C9.80472 3.4959 5.53178 3.4959 2.77262 6.06031C2.7103 6.12045 2.67474 6.20306 2.67393 6.28962C2.67311 6.37619 2.70711 6.45946 2.76829 6.52075L3.92722 7.69108C4.04669 7.81059 4.23973 7.81311 4.36228 7.69677C5.26775 6.87753 6.44555 6.42362 7.66709 6.42311ZM9.89493 9.21619C9.95693 9.15539 9.99107 9.07173 9.9893 8.98495C9.98752 8.89817 9.95 8.81597 9.88557 8.75776C8.60491 7.67548 6.72925 7.67548 5.44859 8.75776C5.38411 8.81592 5.34651 8.8981 5.34467 8.98488C5.34283 9.07166 5.37692 9.15535 5.43888 9.21619L7.44453 11.2382C7.50331 11.2976 7.58347 11.3311 7.66709 11.3311C7.75071 11.3311 7.83084 11.2976 7.88963 11.2382L9.89493 9.21619Z" fill="black"/>
</svg>
